<svg xmlns="http://www.w3.org/2000/svg" style="display:none">
<symbol id="icon-bomb" viewBox="0 0 256 256"><rect width="256" height="256" fill="none"/><path d="M88,64h48a8,8,0,0,1,8,8V86.66a80,80,0,1,1-64,0V72A8,8,0,0,1,88,64Z" fill="none" stroke="currentColor" stroke-linecap="round" stroke-linejoin="round" stroke-width="16"/><path d="M112,64s0-40,32-40,40,56,72,56,32-40,32-40" fill="none" stroke="currentColor" stroke-linecap="round" stroke-linejoin="round" stroke-width="16"/><path d="M104,208a49.52,49.52,0,0,1-40-40" fill="none" stroke="currentColor" stroke-linecap="round" stroke-linejoin="round" stroke-width="16"/></symbol>
<symbol id="icon-book-open-text" viewBox="0 0 256 256"><rect width="256" height="256" fill="none"/><path d="M128,88a32,32,0,0,1,32-32h72V200H160a32,32,0,0,0-32,32" fill="none" stroke="currentColor" stroke-linecap="round" stroke-linejoin="round" stroke-width="16"/><path d="M24,200H96a32,32,0,0,1,32,32V88A32,32,0,0,0,96,56H24Z" fill="none" stroke="currentColor" stroke-linecap="round" stroke-linejoin="round" stroke-width="16"/><line x1="160" y1="96" x2="200" y2="96" fill="none" stroke="currentColor" stroke-linecap="round" stroke-linejoin="round" stroke-width="16"/><line x1="160" y1="128" x2="200" y2="128" fill="none" stroke="currentColor" stroke-linecap="round" stroke-linejoin="round" stroke-width="16"/><line x1="160" y1="160" x2="200" y2="160" fill="none" stroke="currentColor" stroke-linecap="round" stroke-linejoin="round" stroke-width="16"/></symbol>
<symbol id="icon-bookmark" viewBox="0 0 256 256"><rect width="256" height="256" fill="none"/><path d="M192,224l-64-40L64,224V48a8,8,0,0,1,8-8H184a8,8,0,0,1,8,8Z" fill="none" stroke="currentColor" stroke-linecap="round" stroke-linejoin="round" stroke-width="16"/><polyline points="192 176 127.99 136 64 176" fill="none" stroke="currentColor" stroke-linecap="round" stroke-linejoin="round" stroke-width="16"/></symbol>
<symbol id="icon-caret-right" viewBox="0 0 256 256"><rect width="256" height="256" fill="none"/><polyline points="96 48 176 128 96 208" fill="none" stroke="currentColor" stroke-linecap="round" stroke-linejoin="round" stroke-width="16"/></symbol>
<symbol id="icon-caret-left" xmlns="http://www.w3.org/2000/svg" viewBox="0 0 256 256"><rect width="256" height="256" fill="none"/><polyline points="160 208 80 128 160 48" fill="none" stroke="currentColor" stroke-linecap="round" stroke-linejoin="round" stroke-width="16"/></symbol>
<symbol id="icon-caret-up" xmlns="http://www.w3.org/2000/svg" viewBox="0 0 256 256"><rect width="256" height="256" fill="none"/><polyline points="48 160 128 80 208 160" fill="none" stroke="currentColor" stroke-linecap="round" stroke-linejoin="round" stroke-width="16"/></symbol>
<symbol id="icon-caret-down" xmlns="http://www.w3.org/2000/svg" viewBox="0 0 256 256"><rect width="256" height="256" fill="none"/><polyline points="208 96 128 176 48 96" fill="none" stroke="currentColor" stroke-linecap="round" stroke-linejoin="round" stroke-width="16"/></symbol>
<symbol id="icon-chat-circle-text" viewBox="0 0 256 256"><rect width="256" height="256" fill="none"/><line x1="96" y1="112" x2="160" y2="112" fill="none" stroke="currentColor" stroke-linecap="round" stroke-linejoin="round" stroke-width="16"/><line x1="96" y1="144" x2="160" y2="144" fill="none" stroke="currentColor" stroke-linecap="round" stroke-linejoin="round" stroke-width="16"/><path d="M79.93,211.11a96,96,0,1,0-35-35h0L32.42,213.46a8,8,0,0,0,10.12,10.12l37.39-12.47Z" fill="none" stroke="currentColor" stroke-linecap="round" stroke-linejoin="round" stroke-width="16"/></symbol>
<symbol id="icon-chats-circle" viewBox="0 0 256 256"><rect width="256" height="256" fill="none"/><path d="M32.5,138A72,72,0,1,1,62,167.5l-27.76,8.16a8,8,0,0,1-9.93-9.93Z" fill="none" stroke="currentColor" stroke-linecap="round" stroke-linejoin="round" stroke-width="16"/><path d="M163.94,80.11A72,72,0,0,1,223.5,186l8.16,27.76a8,8,0,0,1-9.93,9.93L194,215.5A72.05,72.05,0,0,1,92.06,175.89" fill="none" stroke="currentColor" stroke-linecap="round" stroke-linejoin="round" stroke-width="16"/></symbol>
<symbol id="icon-corners-out" viewBox="0 0 256 256"><rect width="256" height="256" fill="none"/><polyline points="168 48 208 48 208 88" fill="none" stroke="currentColor" stroke-linecap="round" stroke-linejoin="round" stroke-width="16"/><polyline points="88 208 48 208 48 168" fill="none" stroke="currentColor" stroke-linecap="round" stroke-linejoin="round" stroke-width="16"/><polyline points="208 168 208 208 168 208" fill="none" stroke="currentColor" stroke-linecap="round" stroke-linejoin="round" stroke-width="16"/><polyline points="48 88 48 48 88 48" fill="none" stroke="currentColor" stroke-linecap="round" stroke-linejoin="round" stroke-width="16"/></symbol>
<symbol id="icon-eyeglasses" viewBox="0 0 256 256"><rect width="256" height="256" fill="none"/><circle cx="68" cy="164" r="36" fill="none" stroke="currentColor" stroke-linecap="round" stroke-linejoin="round" stroke-width="16"/><circle cx="188" cy="164" r="36" fill="none" stroke="currentColor" stroke-linecap="round" stroke-linejoin="round" stroke-width="16"/><line x1="104" y1="160" x2="152" y2="160" fill="none" stroke="currentColor" stroke-linecap="round" stroke-linejoin="round" stroke-width="16"/><path d="M32,164V72A24,24,0,0,1,56,48" fill="none" stroke="currentColor" stroke-linecap="round" stroke-linejoin="round" stroke-width="16"/><path d="M200,48a24,24,0,0,1,24,24v92" fill="none" stroke="currentColor" stroke-linecap="round" stroke-linejoin="round" stroke-width="16"/></symbol>
<symbol id="icon-eye" viewBox="0 0 256 256"><rect width="256" height="256" fill="none"/><path d="M128,56C48,56,16,128,16,128s32,72,112,72,112-72,112-72S208,56,128,56Z" fill="none" stroke="currentColor" stroke-linecap="round" stroke-linejoin="round" stroke-width="16"/><circle cx="128" cy="128" r="40" fill="none" stroke="currentColor" stroke-linecap="round" stroke-linejoin="round" stroke-width="16"/></symbol>
<symbol id="icon-eye-slash" viewBox="0 0 256 256"><rect width="256" height="256" fill="none"/><line x1="48" y1="40" x2="208" y2="216" fill="none" stroke="currentColor" stroke-linecap="round" stroke-linejoin="round" stroke-width="16"/><path d="M154.91,157.6a40,40,0,0,1-53.82-59.2" fill="none" stroke="currentColor" stroke-linecap="round" stroke-linejoin="round" stroke-width="16"/><path d="M135.53,88.71a40,40,0,0,1,32.3,35.53" fill="none" stroke="currentColor" stroke-linecap="round" stroke-linejoin="round" stroke-width="16"/><path d="M208.61,169.1C230.41,149.58,240,128,240,128S208,56,128,56a126,126,0,0,0-20.68,1.68" fill="none" stroke="currentColor" stroke-linecap="round" stroke-linejoin="round" stroke-width="16"/><path d="M74,68.6C33.23,89.24,16,128,16,128s32,72,112,72a118.05,118.05,0,0,0,54-12.6" fill="none" stroke="currentColor" stroke-linecap="round" stroke-linejoin="round" stroke-width="16"/></symbol>
<symbol id="icon-facebook-logo" viewBox="0 0 256 256"><rect width="256" height="256" fill="none"/><circle cx="128" cy="128" r="96" fill="none" stroke="currentColor" stroke-linecap="round" stroke-linejoin="round" stroke-width="16"/><path d="M168,88H152a24,24,0,0,0-24,24V224" fill="none" stroke="currentColor" stroke-linecap="round" stroke-linejoin="round" stroke-width="16"/><line x1="96" y1="144" x2="160" y2="144" fill="none" stroke="currentColor" stroke-linecap="round" stroke-linejoin="round" stroke-width="16"/></symbol>
<symbol id="icon-fediverse-logo" viewBox="0 0 256 256"><rect width="256" height="256" fill="none"/><circle cx="148" cy="44" r="20" fill="none" stroke="currentColor" stroke-linecap="round" stroke-linejoin="round" stroke-width="16"/><circle cx="212" cy="124" r="20" fill="none" stroke="currentColor" stroke-linecap="round" stroke-linejoin="round" stroke-width="16"/><circle cx="156" cy="212" r="20" fill="none" stroke="currentColor" stroke-linecap="round" stroke-linejoin="round" stroke-width="16"/><circle cx="56" cy="184" r="20" fill="none" stroke="currentColor" stroke-linecap="round" stroke-linejoin="round" stroke-width="16"/><circle cx="52" cy="84" r="20" fill="none" stroke="currentColor" stroke-linecap="round" stroke-linejoin="round" stroke-width="16"/><line x1="201.26" y1="140.88" x2="166.74" y2="195.12" fill="none" stroke="currentColor" stroke-linecap="round" stroke-linejoin="round" stroke-width="16"/><line x1="160.49" y1="59.62" x2="199.51" y2="108.38" fill="none" stroke="currentColor" stroke-linecap="round" stroke-linejoin="round" stroke-width="16"/><line x1="70.47" y1="76.31" x2="129.53" y2="51.69" fill="none" stroke="currentColor" stroke-linecap="round" stroke-linejoin="round" stroke-width="16"/><line x1="192.02" y1="124.95" x2="128" y2="128" fill="none" stroke="currentColor" stroke-linecap="round" stroke-linejoin="round" stroke-width="16"/><line x1="128" y1="128" x2="143.37" y2="63.46" fill="none" stroke="currentColor" stroke-linecap="round" stroke-linejoin="round" stroke-width="16"/><line x1="69.31" y1="94.02" x2="128" y2="128" fill="none" stroke="currentColor" stroke-linecap="round" stroke-linejoin="round" stroke-width="16"/><line x1="128" y1="128" x2="149.67" y2="193.02" fill="none" stroke="currentColor" stroke-linecap="round" stroke-linejoin="round" stroke-width="16"/><line x1="136.74" y1="206.61" x2="75.26" y2="189.39" fill="none" stroke="currentColor" stroke-linecap="round" stroke-linejoin="round" stroke-width="16"/><line x1="71.79" y1="171.72" x2="128" y2="128" fill="none" stroke="currentColor" stroke-linecap="round" stroke-linejoin="round" stroke-width="16"/><line x1="55.2" y1="164.02" x2="52.8" y2="103.98" fill="none" stroke="currentColor" stroke-linecap="round" stroke-linejoin="round" stroke-width="16"/></symbol>
<symbol id="icon-file-text" viewBox="0 0 256 256"><rect width="256" height="256" fill="none"/><path d="M200,224H56a8,8,0,0,1-8-8V40a8,8,0,0,1,8-8h96l56,56V216A8,8,0,0,1,200,224Z" fill="none" stroke="currentColor" stroke-linecap="round" stroke-linejoin="round" stroke-width="16"/><polyline points="152 32 152 88 208 88" fill="none" stroke="currentColor" stroke-linecap="round" stroke-linejoin="round" stroke-width="16"/><line x1="96" y1="136" x2="160" y2="136" fill="none" stroke="currentColor" stroke-linecap="round" stroke-linejoin="round" stroke-width="16"/><line x1="96" y1="168" x2="160" y2="168" fill="none" stroke="currentColor" stroke-linecap="round" stroke-linejoin="round" stroke-width="16"/></symbol>
<symbol id="icon-file" viewBox="0 0 256 256"><rect width="256" height="256" fill="none"/><path d="M200,224H56a8,8,0,0,1-8-8V40a8,8,0,0,1,8-8h96l56,56V216A8,8,0,0,1,200,224Z" fill="none" stroke="currentColor" stroke-linecap="round" stroke-linejoin="round" stroke-width="16"/><polyline points="152 32 152 88 208 88" fill="none" stroke="currentColor" stroke-linecap="round" stroke-linejoin="round" stroke-width="16"/></symbol>
<symbol id="icon-floppy-disk" viewBox="0 0 256 256"><rect width="256" height="256" fill="none"/><path d="M216,83.31V208a8,8,0,0,1-8,8H48a8,8,0,0,1-8-8V48a8,8,0,0,1,8-8H172.69a8,8,0,0,1,5.65,2.34l35.32,35.32A8,8,0,0,1,216,83.31Z" fill="none" stroke="currentColor" stroke-linecap="round" stroke-linejoin="round" stroke-width="16"/><path d="M80,216V152a8,8,0,0,1,8-8h80a8,8,0,0,1,8,8v64" fill="none" stroke="currentColor" stroke-linecap="round" stroke-linejoin="round" stroke-width="16"/><line x1="152" y1="72" x2="96" y2="72" fill="none" stroke="currentColor" stroke-linecap="round" stroke-linejoin="round" stroke-width="16"/></symbol>
<symbol id="icon-folder-open" viewBox="0 0 256 256"><rect width="256" height="256" fill="none"/><path d="M32,208V64a8,8,0,0,1,8-8H93.33a8,8,0,0,1,4.8,1.6L128,80h72a8,8,0,0,1,8,8v24" fill="none" stroke="currentColor" stroke-linecap="round" stroke-linejoin="round" stroke-width="16"/><path d="M32,208l30.18-90.53A8,8,0,0,1,69.77,112H232a8,8,0,0,1,7.59,10.53L211.09,208Z" fill="none" stroke="currentColor" stroke-linecap="round" stroke-linejoin="round" stroke-width="16"/></symbol>
<symbol id="icon-globe-hemisphere-east" viewBox="0 0 256 256"><rect width="256" height="256" fill="none"/><circle cx="128" cy="128" r="96" fill="none" stroke="currentColor" stroke-linecap="round" stroke-linejoin="round" stroke-width="16"/><path d="M184.42,205.68l-9.36-9.37a8,8,0,0,0-3.63-2.09L150,188.59a8,8,0,0,1-5.88-8.9l2.38-16.2a8,8,0,0,1,4.85-6.22l30.45-12.66a8,8,0,0,1,8.47,1.49L215,168.71" fill="none" stroke="currentColor" stroke-linecap="round" stroke-linejoin="round" stroke-width="16"/><path d="M50.49,184.65l9.92-6.52A8,8,0,0,0,64,171.49l.21-36.23a8.06,8.06,0,0,1,1.35-4.41l20.94-31.3a8,8,0,0,1,11.34-2l19.81,13a8.06,8.06,0,0,0,5.77,1.45l31.46-4.26a8,8,0,0,0,5-2.71L182.06,79.2A8,8,0,0,0,184,74V50" fill="none" stroke="currentColor" stroke-linecap="round" stroke-linejoin="round" stroke-width="16"/></symbol>
<symbol id="icon-instagram-logo" viewBox="0 0 256 256"><rect width="256" height="256" fill="none"/><circle cx="128" cy="128" r="40" fill="none" stroke="currentColor" stroke-miterlimit="10" stroke-width="16"/><rect x="32" y="32" width="192" height="192" rx="48" fill="none" stroke="currentColor" stroke-linecap="round" stroke-linejoin="round" stroke-width="16"/><circle cx="180" cy="76" r="12"/></symbol>
<symbol id="icon-linkedin-logo" viewBox="0 0 256 256"><rect width="256" height="256" fill="none"/><rect x="32" y="32" width="192" height="192" rx="8" fill="none" stroke="currentColor" stroke-linecap="round" stroke-linejoin="round" stroke-width="16"/><line x1="120" y1="112" x2="120" y2="176" fill="none" stroke="currentColor" stroke-linecap="round" stroke-linejoin="round" stroke-width="16"/><line x1="88" y1="112" x2="88" y2="176" fill="none" stroke="currentColor" stroke-linecap="round" stroke-linejoin="round" stroke-width="16"/><path d="M120,140a28,28,0,0,1,56,0v36" fill="none" stroke="currentColor" stroke-linecap="round" stroke-linejoin="round" stroke-width="16"/><circle cx="88" cy="84" r="12"/></symbol>
<symbol id="icon-list-bullets" viewBox="0 0 256 256"><rect width="256" height="256" fill="none"/><line x1="88" y1="64" x2="216" y2="64" fill="none" stroke="currentColor" stroke-linecap="round" stroke-linejoin="round" stroke-width="16"/><line x1="88" y1="128" x2="216" y2="128" fill="none" stroke="currentColor" stroke-linecap="round" stroke-linejoin="round" stroke-width="16"/><line x1="88" y1="192" x2="216" y2="192" fill="none" stroke="currentColor" stroke-linecap="round" stroke-linejoin="round" stroke-width="16"/><circle cx="44" cy="64" r="12"/><circle cx="44" cy="128" r="12"/><circle cx="44" cy="192" r="12"/></symbol>
<symbol id="icon-lock-key" viewBox="0 0 256 256"><rect width="256" height="256" fill="none"/><circle cx="128" cy="140" r="20" fill="none" stroke="currentColor" stroke-linecap="round" stroke-linejoin="round" stroke-width="16"/><line x1="128" y1="160" x2="128" y2="184" fill="none" stroke="currentColor" stroke-linecap="round" stroke-linejoin="round" stroke-width="16"/><rect x="40" y="88" width="176" height="128" rx="8" fill="none" stroke="currentColor" stroke-linecap="round" stroke-linejoin="round" stroke-width="16"/><path d="M88,88V56a40,40,0,0,1,80,0V88" fill="none" stroke="currentColor" stroke-linecap="round" stroke-linejoin="round" stroke-width="16"/></symbol>
<symbol id="icon-magnifying-glass" viewBox="0 0 256 256"><rect width="256" height="256" fill="none"/><circle cx="112" cy="112" r="80" fill="none" stroke="currentColor" stroke-linecap="round" stroke-linejoin="round" stroke-width="16"/><line x1="168.57" y1="168.57" x2="224" y2="224" fill="none" stroke="currentColor" stroke-linecap="round" stroke-linejoin="round" stroke-width="16"/></symbol>
<symbol id="icon-mastodon-logo" viewBox="0 0 256 256"><rect width="256" height="256" fill="none"/><path d="M160,224H72a32,32,0,0,1-32-32V72A32,32,0,0,1,72,40H184a32,32,0,0,1,32,32v72a32,32,0,0,1-32,32H40" fill="none" stroke="currentColor" stroke-linecap="round" stroke-linejoin="round" stroke-width="16"/><path d="M128,136V104a24,24,0,0,0-48,0v32" fill="none" stroke="currentColor" stroke-linecap="round" stroke-linejoin="round" stroke-width="16"/><path d="M176,136V104a24,24,0,0,0-48,0" fill="none" stroke="currentColor" stroke-linecap="round" stroke-linejoin="round" stroke-width="16"/></symbol>
<symbol id="icon-matrix-logo" viewBox="0 0 256 256"><rect width="256" height="256" fill="none"/><polyline points="64 40 40 40 40 216 64 216" fill="none" stroke="currentColor" stroke-linecap="round" stroke-linejoin="round" stroke-width="16"/><polyline points="192 40 216 40 216 216 192 216" fill="none" stroke="currentColor" stroke-linecap="round" stroke-linejoin="round" stroke-width="16"/><path d="M128,160V120a24,24,0,0,0-48,0" fill="none" stroke="currentColor" stroke-linecap="round" stroke-linejoin="round" stroke-width="16"/><path d="M176,160V120a24,24,0,0,0-48,0" fill="none" stroke="currentColor" stroke-linecap="round" stroke-linejoin="round" stroke-width="16"/><line x1="80" y1="96" x2="80" y2="160" fill="none" stroke="currentColor" stroke-linecap="round" stroke-linejoin="round" stroke-width="16"/></symbol>
<symbol id="icon-minus" viewBox="0 0 256 256"><rect width="256" height="256" fill="none"/><line x1="40" y1="128" x2="216" y2="128" fill="none" stroke="currentColor" stroke-linecap="round" stroke-linejoin="round" stroke-width="16"/></symbol>
<symbol id="icon-music-notes" viewBox="0 0 256 256"><rect width="256" height="256" fill="none"/><circle cx="180" cy="164" r="28" fill="none" stroke="currentColor" stroke-linecap="round" stroke-linejoin="round" stroke-width="16"/><circle cx="52" cy="196" r="28" fill="none" stroke="currentColor" stroke-linecap="round" stroke-linejoin="round" stroke-width="16"/><line x1="208" y1="72" x2="80" y2="104" fill="none" stroke="currentColor" stroke-linecap="round" stroke-linejoin="round" stroke-width="16"/><polyline points="80 196 80 56 208 24 208 164" fill="none" stroke="currentColor" stroke-linecap="round" stroke-linejoin="round" stroke-width="16"/></symbol>
<symbol id="icon-notepad" viewBox="0 0 256 256"><rect width="256" height="256" fill="none"/><line x1="96" y1="128" x2="160" y2="128" fill="none" stroke="currentColor" stroke-linecap="round" stroke-linejoin="round" stroke-width="16"/><line x1="96" y1="160" x2="160" y2="160" fill="none" stroke="currentColor" stroke-linecap="round" stroke-linejoin="round" stroke-width="16"/><path d="M48,40H208a0,0,0,0,1,0,0V200a24,24,0,0,1-24,24H72a24,24,0,0,1-24-24V40A0,0,0,0,1,48,40Z" fill="none" stroke="currentColor" stroke-linecap="round" stroke-linejoin="round" stroke-width="16"/><line x1="80" y1="24" x2="80" y2="56" fill="none" stroke="currentColor" stroke-linecap="round" stroke-linejoin="round" stroke-width="16"/><line x1="128" y1="24" x2="128" y2="56" fill="none" stroke="currentColor" stroke-linecap="round" stroke-linejoin="round" stroke-width="16"/><line x1="176" y1="24" x2="176" y2="56" fill="none" stroke="currentColor" stroke-linecap="round" stroke-linejoin="round" stroke-width="16"/></symbol>
<symbol id="icon-package" viewBox="0 0 256 256"><rect width="256" height="256" fill="none"/><line x1="128" y1="129.09" x2="128" y2="231.97" fill="none" stroke="currentColor" stroke-linecap="round" stroke-linejoin="round" stroke-width="16"/><polyline points="32.7 76.92 128 129.08 223.3 76.92" fill="none" stroke="currentColor" stroke-linecap="round" stroke-linejoin="round" stroke-width="16"/><path d="M219.84,182.84l-88,48.18a8,8,0,0,1-7.68,0l-88-48.18a8,8,0,0,1-4.16-7V80.18a8,8,0,0,1,4.16-7l88-48.18a8,8,0,0,1,7.68,0l88,48.18a8,8,0,0,1,4.16,7v95.64A8,8,0,0,1,219.84,182.84Z" fill="none" stroke="currentColor" stroke-linecap="round" stroke-linejoin="round" stroke-width="16"/><polyline points="81.56 48.31 176 100 176 152" fill="none" stroke="currentColor" stroke-linecap="round" stroke-linejoin="round" stroke-width="16"/></symbol>
<symbol id="icon-pause" viewBox="0 0 256 256"><rect width="256" height="256" fill="none"/><rect x="152" y="40" width="56" height="176" rx="8" fill="none" stroke="currentColor" stroke-linecap="round" stroke-linejoin="round" stroke-width="16"/><rect x="48" y="40" width="56" height="176" rx="8" fill="none" stroke="currentColor" stroke-linecap="round" stroke-linejoin="round" stroke-width="16"/></symbol>
<symbol id="icon-pencil" viewBox="0 0 256 256"><rect width="256" height="256" fill="none"/><path d="M92.69,216H48a8,8,0,0,1-8-8V163.31a8,8,0,0,1,2.34-5.65L165.66,34.34a8,8,0,0,1,11.31,0L221.66,79a8,8,0,0,1,0,11.31L98.34,213.66A8,8,0,0,1,92.69,216Z" fill="none" stroke="currentColor" stroke-linecap="round" stroke-linejoin="round" stroke-width="16"/><line x1="136" y1="64" x2="192" y2="120" fill="none" stroke="currentColor" stroke-linecap="round" stroke-linejoin="round" stroke-width="16"/><line x1="164" y1="92" x2="68" y2="188" fill="none" stroke="currentColor" stroke-linecap="round" stroke-linejoin="round" stroke-width="16"/><line x1="95.49" y1="215.49" x2="40.51" y2="160.51" fill="none" stroke="currentColor" stroke-linecap="round" stroke-linejoin="round" stroke-width="16"/></symbol>
<symbol id="icon-pix-logo" viewBox="0 0 256 256"><rect width="256" height="256" fill="none"/><rect x="52.13" y="52.13" width="151.73" height="151.73" rx="7.95" transform="translate(-53.02 128) rotate(-45)" fill="none" stroke="currentColor" stroke-linecap="round" stroke-linejoin="round" stroke-width="16"/><polyline points="52.71 96 96 96 160 160 203.29 160" fill="none" stroke="currentColor" stroke-linecap="round" stroke-linejoin="round" stroke-width="16"/><polyline points="203.29 96 160 96 96 160 52.71 160" fill="none" stroke="currentColor" stroke-linecap="round" stroke-linejoin="round" stroke-width="16"/></symbol>
<symbol id="icon-play-circle" viewBox="0 0 256 256"><rect width="256" height="256" fill="none"/><circle cx="128" cy="128" r="96" fill="none" stroke="currentColor" stroke-miterlimit="10" stroke-width="16"/><polygon points="172 128 108 88 108 168 172 128" fill="none" stroke="currentColor" stroke-linecap="round" stroke-linejoin="round" stroke-width="16"/></symbol>
<symbol id="icon-plus" viewBox="0 0 256 256"><rect width="256" height="256" fill="none"/><line x1="40" y1="128" x2="216" y2="128" fill="none" stroke="currentColor" stroke-linecap="round" stroke-linejoin="round" stroke-width="16"/><line x1="128" y1="40" x2="128" y2="216" fill="none" stroke="currentColor" stroke-linecap="round" stroke-linejoin="round" stroke-width="16"/></symbol>
<symbol id="icon-printer" viewBox="0 0 256 256"><rect width="256" height="256" fill="none"/><polyline points="64 80 64 40 192 40 192 80" fill="none" stroke="currentColor" stroke-linecap="round" stroke-linejoin="round" stroke-width="16"/><rect x="64" y="152" width="128" height="64" fill="none" stroke="currentColor" stroke-linecap="round" stroke-linejoin="round" stroke-width="16"/><path d="M64,176H24V96c0-8.84,7.76-16,17.33-16H214.67C224.24,80,232,87.16,232,96v80H192" fill="none" stroke="currentColor" stroke-linecap="round" stroke-linejoin="round" stroke-width="16"/><circle cx="188" cy="116" r="12"/></symbol>
<symbol id="icon-qr-code" viewBox="0 0 256 256"><rect width="256" height="256" fill="none"/><rect x="48" y="48" width="64" height="64" rx="8" fill="none" stroke="currentColor" stroke-linecap="round" stroke-linejoin="round" stroke-width="16"/><rect x="48" y="144" width="64" height="64" rx="8" fill="none" stroke="currentColor" stroke-linecap="round" stroke-linejoin="round" stroke-width="16"/><rect x="144" y="48" width="64" height="64" rx="8" fill="none" stroke="currentColor" stroke-linecap="round" stroke-linejoin="round" stroke-width="16"/><line x1="144" y1="144" x2="144" y2="176" fill="none" stroke="currentColor" stroke-linecap="round" stroke-linejoin="round" stroke-width="16"/><polyline points="144 208 176 208 176 144" fill="none" stroke="currentColor" stroke-linecap="round" stroke-linejoin="round" stroke-width="16"/><line x1="176" y1="160" x2="208" y2="160" fill="none" stroke="currentColor" stroke-linecap="round" stroke-linejoin="round" stroke-width="16"/><line x1="208" y1="192" x2="208" y2="208" fill="none" stroke="currentColor" stroke-linecap="round" stroke-linejoin="round" stroke-width="16"/></symbol>
<symbol id="icon-seal" viewBox="0 0 256 256"><rect width="256" height="256" fill="none"/><path d="M54.46,201.54c-9.2-9.2-3.1-28.53-7.78-39.85C41.82,150,24,140.5,24,128s17.82-22,22.68-33.69C51.36,83,45.26,63.66,54.46,54.46S83,51.36,94.31,46.68C106.05,41.82,115.5,24,128,24S150,41.82,161.69,46.68c11.32,4.68,30.65-1.42,39.85,7.78s3.1,28.53,7.78,39.85C214.18,106.05,232,115.5,232,128S214.18,150,209.32,161.69c-4.68,11.32,1.42,30.65-7.78,39.85s-28.53,3.1-39.85,7.78C150,214.18,140.5,232,128,232s-22-17.82-33.69-22.68C83,204.64,63.66,210.74,54.46,201.54Z" fill="none" stroke="currentColor" stroke-linecap="round" stroke-linejoin="round" stroke-width="16"/></symbol>
<symbol id="icon-speaker-high" viewBox="0 0 256 256"><rect width="256" height="256" fill="none"/><path d="M80,168H32a8,8,0,0,1-8-8V96a8,8,0,0,1,8-8H80l72-56V224Z" fill="none" stroke="currentColor" stroke-linecap="round" stroke-linejoin="round" stroke-width="16"/><line x1="80" y1="88" x2="80" y2="168" fill="none" stroke="currentColor" stroke-linecap="round" stroke-linejoin="round" stroke-width="16"/><path d="M192,106.85a32,32,0,0,1,0,42.3" fill="none" stroke="currentColor" stroke-linecap="round" stroke-linejoin="round" stroke-width="16"/><path d="M221.67,80a72,72,0,0,1,0,96" fill="none" stroke="currentColor" stroke-linecap="round" stroke-linejoin="round" stroke-width="16"/></symbol>
<symbol id="icon-sun" viewBox="0 0 256 256"><rect width="256" height="256" fill="none"/><line x1="128" y1="40" x2="128" y2="16" fill="none" stroke="currentColor" stroke-linecap="round" stroke-linejoin="round" stroke-width="16"/><circle cx="128" cy="128" r="56" fill="none" stroke="currentColor" stroke-linecap="round" stroke-linejoin="round" stroke-width="16"/><line x1="64" y1="64" x2="48" y2="48" fill="none" stroke="currentColor" stroke-linecap="round" stroke-linejoin="round" stroke-width="16"/><line x1="64" y1="192" x2="48" y2="208" fill="none" stroke="currentColor" stroke-linecap="round" stroke-linejoin="round" stroke-width="16"/><line x1="192" y1="64" x2="208" y2="48" fill="none" stroke="currentColor" stroke-linecap="round" stroke-linejoin="round" stroke-width="16"/><line x1="192" y1="192" x2="208" y2="208" fill="none" stroke="currentColor" stroke-linecap="round" stroke-linejoin="round" stroke-width="16"/><line x1="40" y1="128" x2="16" y2="128" fill="none" stroke="currentColor" stroke-linecap="round" stroke-linejoin="round" stroke-width="16"/><line x1="128" y1="216" x2="128" y2="240" fill="none" stroke="currentColor" stroke-linecap="round" stroke-linejoin="round" stroke-width="16"/><line x1="216" y1="128" x2="240" y2="128" fill="none" stroke="currentColor" stroke-linecap="round" stroke-linejoin="round" stroke-width="16"/></symbol>
<symbol id="icon-text-aa" viewBox="0 0 256 256"><rect width="256" height="256" fill="none"/><polyline points="144 192 80 56 16 192" fill="none" stroke="currentColor" stroke-linecap="round" stroke-linejoin="round" stroke-width="16"/><ellipse cx="200" cy="164" rx="32" ry="28" fill="none" stroke="currentColor" stroke-linecap="round" stroke-linejoin="round" stroke-width="16"/><path d="M232,192V132c0-15.46-14.33-28-32-28-9.56,0-18.14,2.18-24,8" fill="none" stroke="currentColor" stroke-linecap="round" stroke-linejoin="round" stroke-width="16"/><line x1="125.18" y1="152" x2="34.82" y2="152" fill="none" stroke="currentColor" stroke-linecap="round" stroke-linejoin="round" stroke-width="16"/></symbol>
<symbol id="icon-timer" viewBox="0 0 256 256"><rect width="256" height="256" fill="none"/><circle cx="128" cy="136" r="88" fill="none" stroke="currentColor" stroke-linecap="round" stroke-linejoin="round" stroke-width="16"/><line x1="128" y1="136" x2="168" y2="96" fill="none" stroke="currentColor" stroke-linecap="round" stroke-linejoin="round" stroke-width="16"/><line x1="104" y1="16" x2="152" y2="16" fill="none" stroke="currentColor" stroke-linecap="round" stroke-linejoin="round" stroke-width="16"/></symbol>
<symbol id="icon-tomato" viewBox="0 0 256 256">
  <rect width="256" height="256" fill="none"/>
  <circle cx="128" cy="148" r="64" fill="none" stroke="currentColor" stroke-linecap="round" stroke-linejoin="round" stroke-width="16"/>
  <path d="M96 88c12-14 52-14 64 0" fill="none" stroke="currentColor" stroke-linecap="round" stroke-linejoin="round" stroke-width="16"/>
  <path d="M128 40c0 22-10 32-24 40" fill="none" stroke="currentColor" stroke-linecap="round" stroke-linejoin="round" stroke-width="16"/>
  <path d="M128 40c0 22 10 32 24 40" fill="none" stroke="currentColor" stroke-linecap="round" stroke-linejoin="round" stroke-width="16"/>
</symbol>
<symbol id="icon-trash" viewBox="0 0 256 256"><rect width="256" height="256" fill="none"/><line x1="216" y1="56" x2="40" y2="56" fill="none" stroke="currentColor" stroke-linecap="round" stroke-linejoin="round" stroke-width="16"/><line x1="104" y1="104" x2="104" y2="168" fill="none" stroke="currentColor" stroke-linecap="round" stroke-linejoin="round" stroke-width="16"/><line x1="152" y1="104" x2="152" y2="168" fill="none" stroke="currentColor" stroke-linecap="round" stroke-linejoin="round" stroke-width="16"/><path d="M200,56V208a8,8,0,0,1-8,8H64a8,8,0,0,1-8-8V56" fill="none" stroke="currentColor" stroke-linecap="round" stroke-linejoin="round" stroke-width="16"/><path d="M168,56V40a16,16,0,0,0-16-16H104A16,16,0,0,0,88,40V56" fill="none" stroke="currentColor" stroke-linecap="round" stroke-linejoin="round" stroke-width="16"/></symbol>
<symbol id="icon-upload-simple" viewBox="0 0 256 256"><rect width="256" height="256" fill="none"/><line x1="128" y1="144" x2="128" y2="32" fill="none" stroke="currentColor" stroke-linecap="round" stroke-linejoin="round" stroke-width="16"/><polyline points="216 144 216 208 40 208 40 144" fill="none" stroke="currentColor" stroke-linecap="round" stroke-linejoin="round" stroke-width="16"/><polyline points="88 72 128 32 168 72" fill="none" stroke="currentColor" stroke-linecap="round" stroke-linejoin="round" stroke-width="16"/></symbol>
<symbol id="icon-warning" viewBox="0 0 256 256"><rect width="256" height="256" fill="none"/><path d="M142.41,40.22l87.46,151.87C236,202.79,228.08,216,215.46,216H40.54C27.92,216,20,202.79,26.13,192.09L113.59,40.22C119.89,29.26,136.11,29.26,142.41,40.22Z" fill="none" stroke="currentColor" stroke-linecap="round" stroke-linejoin="round" stroke-width="16"/><line x1="128" y1="144" x2="128" y2="104" fill="none" stroke="currentColor" stroke-linecap="round" stroke-linejoin="round" stroke-width="16"/><circle cx="128" cy="180" r="12"/></symbol>
<symbol id="icon-x-logo" viewBox="0 0 256 256"><rect width="256" height="256" fill="none"/><polygon points="48 40 96 40 208 216 160 216 48 40" fill="none" stroke="currentColor" stroke-linecap="round" stroke-linejoin="round" stroke-width="16"/><line x1="113.88" y1="143.53" x2="48" y2="216" fill="none" stroke="currentColor" stroke-linecap="round" stroke-linejoin="round" stroke-width="16"/><line x1="208" y1="40" x2="142.12" y2="112.47" fill="none" stroke="currentColor" stroke-linecap="round" stroke-linejoin="round" stroke-width="16"/></symbol>
<symbol id="icon-youtube-logo" viewBox="0 0 256 256"><rect width="256" height="256" fill="none"/><polygon points="160 128 112 96 112 160 160 128" fill="none" stroke="currentColor" stroke-linecap="round" stroke-linejoin="round" stroke-width="16"/><path d="M24,128c0,29.91,3.07,47.45,5.41,56.47A16,16,0,0,0,39,195.42C72.52,208.35,128,208,128,208s55.48.35,89-12.58a16,16,0,0,0,9.63-10.95c2.34-9,5.41-26.56,5.41-56.47s-3.07-47.45-5.41-56.47a16,16,0,0,0-9.63-11C183.48,47.65,128,48,128,48s-55.48-.35-89,12.58a16,16,0,0,0-9.63,11C27.07,80.54,24,98.09,24,128Z" fill="none" stroke="currentColor" stroke-linecap="round" stroke-linejoin="round" stroke-width="16"/></symbol>
</svg>
